# xmcd
#
# Track frame offsets:
#	150
#	11522
#	13367
#	23625
#	34000
#	36303
#	46608
#	57316
#	67592
#	77534
#	87162
#	96584
#	105360
#	112800
#	122849
#	136579
#	138549
#	148763
#	158843
#	165406
#	175337
#	184826
#	196894
#	210146
#	218675
#	228625
#	240485
#	249972
#	258665
#	267379
#	276205
#	286205
#	295856
#	305270
#	314625
#	323696
#	332820
#	346298
#
# Disc length: 4741 seconds
#
# Revision: 1
# Processed by: cddbd v1.5.2PL0 Copyright (c) Steve Scherf et al.
# Submitted via: audiograbber 1.83.01
#
DISCID=13128326
DTITLE=Jerry Lee Lewis - Jerry Lee Lewis At Sun Records [CD 2)
DYEAR=2015
DGENRE=Rock and Roll
TTITLE0=It'll Be Me (2.1) [mono]
TTITLE1=It'll Be Me (2.2) [3 false starts] [mono]
TTITLE2=It'll Be Me (2.3) [mono]
TTITLE3=It'll Be Me (2.4) [mono]
TTITLE4=It'll Be Me (2.5) [4 false starts] [mono]
TTITLE5=It'll Be Me (2.6) [mono]
TTITLE6=It'll Be Me (2.7) [mono]
TTITLE7=It'll Be Me (2.8) [LP master] [mono]
TTITLE8=It'll Be Me (2.9) [mono]
TTITLE9=All Night Long (1) [chat and take] [mono]
TTITLE10=All Night Long (2) [mono]
TTITLE11=Old Time Religion (1) [mono]
TTITLE12=Old Time Religion (2) [mono]
TTITLE13=When The Saints Go Marching In [undubbed master] [mono]
TTITLE14=It All Depends (1) [undubbed master] [mono]
TTITLE15=You Are My Sunshine (1) [2 false starts] [mono]
TTITLE16=You Are My Sunshine (2) [mono]
TTITLE17=You Are My Sunshine (3) [mono]
TTITLE18=I Don't Love Nobody (1) [mono]
TTITLE19=I Don't Love Nobody (2) [mono]
TTITLE20=Long Gone Lonesome Blues [mono]
TTITLE21=It'll Be Me (3) [mono]
TTITLE22=Whole Lot Of Shakin' Going On (2) [master] [mono]
TTITLE23=My Carolina Sunshine Girl [mono]
TTITLE24=Shame On You [mono]
TTITLE25=Drinkin' Wine Spo-Dee-O-Dee (1) [mono]
TTITLE26=Pumping Piano Rock [mono]
TTITLE27=Little Green Valley (1) [mono]
TTITLE28=Little Green Valley (2) [mono]
TTITLE29=Little Green Valley (3) [mono]
TTITLE30=Little Green Valley (4) [mono]
TTITLE31=Little Green Valley (5) [mono]
TTITLE32=Little Green Valley (6) [mono]
TTITLE33=Little Green Valley (7) [mono]
TTITLE34=Little Green Valley (8) [mono]
TTITLE35=Little Green Valley (9) [mono]
TTITLE36=Tomorrow Night [mono]
TTITLE37=Love Letters In The Sand [mono]
EXTD=
EXTT0=
EXTT1=
EXTT2=
EXTT3=
EXTT4=
EXTT5=
EXTT6=
EXTT7=
EXTT8=
EXTT9=
EXTT10=
EXTT11=
EXTT12=
EXTT13=
EXTT14=
EXTT15=
EXTT16=
EXTT17=
EXTT18=
EXTT19=
EXTT20=
EXTT21=
EXTT22=
EXTT23=
EXTT24=
EXTT25=
EXTT26=
EXTT27=
EXTT28=
EXTT29=
EXTT30=
EXTT31=
EXTT32=
EXTT33=
EXTT34=
EXTT35=
EXTT36=
EXTT37=
PLAYORDER=
